<svg xmlns="http://www.w3.org/2000/svg"  viewBox="0 0 100 100" width="400px" height="400px" baseProfile="basic"><path fill="#fed5b3" d="M71,82H29c-6.075,0-11-4.925-11-11V29c0-6.075,4.925-11,11-11h42c6.075,0,11,4.925,11,11v42 C82,77.075,77.075,82,71,82z"/><path fill="#1f212b" d="M71,83H29c-6.617,0-12-5.383-12-12V29c0-6.617,5.383-12,12-12h42c6.617,0,12,5.383,12,12v42 C83,77.617,77.617,83,71,83z M29,19c-5.514,0-10,4.486-10,10v42c0,5.514,4.486,10,10,10h42c5.514,0,10-4.486,10-10V29 c0-5.514-4.486-10-10-10H29z"/><path fill="#b77748" d="M58.213,25.988l-0.015,3.718C55.654,27.393,52.467,26,49,26c-8.271,0-15,7.851-15,17.5 S40.729,61,49,61c3.416,0,6.559-1.354,9.083-3.606l-0.028,6.761C58.035,67.323,54.359,70,50.027,70C45.676,70,42,67.312,42,64.13 h-6C36,70.675,42.292,76,50.027,76c7.693,0,13.986-5.296,14.028-11.812l0.157-38.175L58.213,25.988z M49,55 c-4.962,0-9-5.159-9-11.5c0-6.341,4.038-11.5,9-11.5c4.963,0,9,5.159,9,11.5C58,49.841,53.963,55,49,55z"/><path fill="#1f212b" d="M50.027,76.5c-8.01,0-14.527-5.549-14.527-12.37c0-0.276,0.224-0.5,0.5-0.5h6 c0.276,0,0.5,0.224,0.5,0.5c0,2.911,3.447,5.37,7.527,5.37c4.062,0,7.51-2.449,7.528-5.348l0.023-5.688 c-1.196,0.931-2.487,1.659-3.853,2.172c-0.257,0.1-0.547-0.032-0.644-0.292c-0.098-0.259,0.033-0.547,0.292-0.644 c1.573-0.592,3.046-1.493,4.376-2.681c0.148-0.131,0.359-0.163,0.538-0.083c0.181,0.081,0.296,0.261,0.295,0.458l-0.028,6.762 c-0.022,3.438-3.928,6.343-8.528,6.343c-4.397,0-8.146-2.64-8.5-5.87h-5.015c0.312,6.038,6.255,10.87,13.515,10.87 c7.419,0,13.488-5.076,13.528-11.315l0.021-5.08c0.001-0.275,0.225-0.498,0.5-0.498c0.001,0,0.001,0,0.002,0 c0.276,0.001,0.499,0.226,0.498,0.502l-0.021,5.081C64.512,70.979,57.994,76.5,50.027,76.5z M49,61.5c-8.547,0-15.5-8.075-15.5-18 c0-1.247,0.111-2.493,0.33-3.703c0.049-0.271,0.312-0.453,0.581-0.403c0.272,0.049,0.452,0.31,0.403,0.581 C34.605,41.126,34.5,42.312,34.5,43.5c0,9.374,6.505,17,14.5,17c0.276,0,0.5,0.224,0.5,0.5S49.276,61.5,49,61.5z M49,55.5 c-5.238,0-9.5-5.383-9.5-12c0-6.617,4.262-12,9.5-12s9.5,5.383,9.5,12C58.5,50.117,54.238,55.5,49,55.5z M49,32.5 c-4.687,0-8.5,4.935-8.5,11s3.813,11,8.5,11c4.687,0,8.5-4.935,8.5-11S53.687,32.5,49,32.5z M64.094,55.33 c-0.001,0-0.001,0-0.002,0c-0.276-0.001-0.499-0.226-0.498-0.502l0.031-7.532c0.001-0.275,0.225-0.498,0.5-0.498 c0.25-0.035,0.501,0.225,0.5,0.502l-0.031,7.532C64.593,55.107,64.369,55.33,64.094,55.33z M64.14,44.35c-0.001,0-0.001,0-0.002,0 c-0.276-0.001-0.499-0.226-0.498-0.502l0.071-17.338l-5-0.021l-0.014,3.218c-0.001,0.198-0.118,0.376-0.299,0.456 s-0.392,0.044-0.538-0.087C55.289,27.736,52.226,26.5,49,26.5c-0.276,0-0.5-0.224-0.5-0.5s0.224-0.5,0.5-0.5 c3.135,0,6.122,1.078,8.702,3.127l0.011-2.642c0.001-0.275,0.225-0.498,0.5-0.498c0.001,0,0.001,0,0.002,0l6,0.024 c0.133,0,0.26,0.054,0.354,0.148c0.093,0.094,0.146,0.222,0.145,0.354L64.64,43.852C64.639,44.127,64.415,44.35,64.14,44.35z M35.086,37.46c-0.054,0-0.109-0.009-0.164-0.027c-0.261-0.091-0.399-0.375-0.309-0.636c0.704-2.03,1.711-3.878,2.995-5.494 c0.171-0.216,0.486-0.252,0.703-0.081c0.216,0.172,0.252,0.486,0.081,0.703c-1.214,1.527-2.167,3.277-2.833,5.199 C35.487,37.331,35.293,37.46,35.086,37.46z M40.361,29.701c-0.145,0-0.287-0.062-0.386-0.182c-0.176-0.213-0.146-0.528,0.067-0.704 c1.542-1.271,3.247-2.194,5.07-2.743c0.264-0.079,0.543,0.071,0.623,0.335c0.08,0.265-0.07,0.543-0.335,0.623 c-1.695,0.51-3.283,1.37-4.721,2.556C40.586,29.664,40.473,29.701,40.361,29.701z"/></svg>