<?xml version="1.0" encoding="UTF-8" standalone="no"?>
<svg
   viewBox="0 0 18.792001 18.792001"
   version="1.1"
   id="svg260"
   xml:space="preserve"
   width="18.792002"
   height="18.792002"
   xmlns="http://www.w3.org/2000/svg"
   xmlns:svg="http://www.w3.org/2000/svg"><defs
     id="defs264" /><g
     id="g24411"
     transform="translate(-1.6039999,-1.6039999)"><path
       d="M 20.396,11 C 20.378,10.354 20.181,9.725 19.826,9.184 19.472,8.644 18.974,8.212 18.388,7.938 18.611,7.331 18.658,6.674 18.528,6.041 18.397,5.407 18.091,4.823 17.646,4.354 17.176,3.909 16.593,3.604 15.959,3.472 15.326,3.342 14.669,3.389 14.062,3.612 13.789,3.025 13.358,2.526 12.817,2.172 12.276,1.818 11.647,1.62 11,1.604 10.354,1.621 9.727,1.817 9.187,2.172 8.647,2.527 8.218,3.026 7.947,3.612 7.339,3.389 6.68,3.34 6.045,3.472 5.41,3.602 4.825,3.908 4.355,4.354 3.91,4.824 3.606,5.409 3.477,6.042 3.347,6.675 3.397,7.332 3.621,7.938 3.034,8.212 2.534,8.643 2.178,9.183 1.822,9.723 1.623,10.353 1.604,11 c 0.02,0.647 0.218,1.276 0.574,1.817 0.356,0.54 0.856,0.972 1.443,1.245 -0.224,0.606 -0.274,1.263 -0.144,1.896 0.13,0.634 0.433,1.218 0.877,1.688 0.47,0.443 1.054,0.747 1.687,0.878 0.633,0.132 1.29,0.084 1.897,-0.136 0.274,0.586 0.705,1.084 1.246,1.439 0.54,0.354 1.17,0.551 1.816,0.569 0.647,-0.016 1.276,-0.213 1.817,-0.567 0.541,-0.354 0.972,-0.854 1.245,-1.44 0.604,0.239 1.266,0.296 1.903,0.164 0.636,-0.132 1.22,-0.447 1.68,-0.907 0.46,-0.46 0.776,-1.044 0.908,-1.681 0.132,-0.637 0.075,-1.299 -0.165,-1.903 0.586,-0.274 1.084,-0.705 1.439,-1.246 0.354,-0.54 0.551,-1.17 0.569,-1.816 z M 9.4283412,13.387994 C 7.975982,12.687269 7.7163455,11.963074 6.8487599,10.687825 c 0.399721,-0.500228 -0.064532,-0.0035 0.5782573,-0.226682 l 0.7438644,1.068939 1.1110998,1.077222 C 10.852676,10.975301 12.66671,10.557857 14.140098,8.7716181 14.33227,8.5386415 14.772959,7.9264405 14.772959,7.9264405 l 0.684097,0.7424524 c 0.158028,0.1715085 -3.58019,2.4151931 -6.0287148,4.7191011 z"
       fill="#1d9bf0"
       id="path13027"
       style="opacity:1;fill:#4ad155;fill-opacity:1" /><g
       id="g15219"
       transform="matrix(0.74194171,0,0,0.74194171,11.579757,14.704293)"><path
         d="m -7.4201461,-5.1102332 c -0.2635138,-0.3489184 -0.3607652,-0.7725152 -0.304752,-1.1743461 0.056101,-0.4017052 0.2657381,-0.7826037 0.614548,-1.046135 0.3485582,-0.2633498 0.7721726,-0.360709 1.1738775,-0.3046043 0.4019564,0.055921 0.782708,0.2650863 1.0464046,0.6142565 l 2.2758059,3.0198255 6.4464209,-5.946422 0.1684517,0.1771642 -0.1685649,-0.1778493 c 0.018483,-0.017405 0.03857,-0.031585 0.06009,-0.042235 0.3628975,-0.2249853 0.7828407,-0.2855243 1.1704081,-0.2016283 l 6.93e-5,-4.3e-4 0.018821,0.0049 c 0.3890811,0.08904 0.7452273,0.3253264 0.9781556,0.6872672 0.2369602,0.3680446 0.3022805,0.7977712 0.2164652,1.193826 l 4.318e-4,6.94e-5 -0.00477,0.018816 c -0.087468,0.3820664 -0.3167026,0.732439 -0.66773,0.9653336 l -7.6817543,6.79526524 3.627e-4,5.0111e-4 c -0.014498,0.0133753 -0.030172,0.0243344 -0.046779,0.0334761 -0.3433264,0.21609317 -0.7442061,0.28480917 -1.1211127,0.21775878 -0.3800387,-0.0676706 -0.7371663,-0.2734973 -0.9875058,-0.60527632 z"
         id="path14844"
         style="fill:#e3dbde;stroke-width:0.0660429;stroke-dasharray:none" /><path
         style="opacity:1;fill:#e3dbde;fill-opacity:1;stroke:#000000;stroke-width:0.00232094;stroke-linejoin:bevel;stroke-dasharray:none;stroke-opacity:1;paint-order:fill markers stroke"
         d="M 9.1890317,14.471067 C 8.9529079,14.427315 8.7006483,14.297234 8.5633937,14.14845 8.2491872,13.807849 5.9724545,10.719262 5.9212741,10.564184 5.8890814,10.466639 5.8717098,10.26285 5.8826705,10.11132 5.9409104,9.3061615 6.8069144,8.8261436 7.5312167,9.1975458 c 0.2400276,0.1230796 0.331284,0.227424 1.1604705,1.3269062 0.4949762,0.656327 0.9121149,1.204906 0.9269749,1.219066 0.01486,0.01416 1.0805979,-0.946416 2.3683069,-2.1346128 1.287709,-1.1881965 2.408022,-2.2116225 2.489585,-2.2742799 0.565026,-0.4340585 1.492763,-0.093498 1.701522,0.6246073 0.141581,0.4870216 -0.0047,0.9129427 -0.44133,1.2853509 -0.147454,0.1257548 -1.505165,1.3229585 -3.017136,2.6604525 -1.51197,1.337495 -2.8129812,2.458353 -2.8911354,2.490797 -0.198589,0.08244 -0.4444442,0.111366 -0.6394429,0.07523 z"
         id="path16161"
         transform="matrix(1.3478148,0,0,1.3478148,-15.607368,-19.818663)" /><path
         style="opacity:1;fill:#e3dbde;fill-opacity:1;stroke:#000000;stroke-width:0.00232094;stroke-linejoin:bevel;stroke-dasharray:none;stroke-opacity:1;paint-order:fill markers stroke"
         d="M 9.1416656,14.463176 C 9.0244344,14.441658 8.8448383,14.365198 8.7425633,14.293265 8.5257313,14.14076 6.0570443,10.900055 5.945048,10.620899 5.905643,10.522679 5.873402,10.33549 5.873402,10.204924 c 0,-0.8591973 0.8877636,-1.395785 1.6611631,-1.0040508 0.2367251,0.1199035 0.328698,0.2251507 1.1571224,1.3241268 0.4949762,0.656629 0.9212715,1.194824 0.9473229,1.195989 0.026051,0.0012 1.1344186,-1.000038 2.4630386,-2.2248976 2.255335,-2.0792002 2.432965,-2.2321472 2.676188,-2.3043056 0.648563,-0.1924136 1.286367,0.2074958 1.431051,0.8972838 0.04753,0.2265869 0.04393,0.3045283 -0.02389,0.5175783 -0.04391,0.1379514 -0.12804,0.3082789 -0.186951,0.3785055 -0.207454,0.2473061 -6.0296899,5.3561206 -6.1699751,5.4139446 -0.2090588,0.08617 -0.4460064,0.108279 -0.686809,0.06408 z"
         id="path16163"
         transform="matrix(1.3478148,0,0,1.3478148,-15.607368,-19.818663)" /><path
         style="opacity:1;fill:#e3dbde;fill-opacity:1;stroke:#000000;stroke-width:0.00232094;stroke-linejoin:bevel;stroke-dasharray:none;stroke-opacity:1;paint-order:fill markers stroke"
         d="M 9.1416656,14.463176 C 9.0244344,14.441658 8.8445221,14.365073 8.7418606,14.292985 8.524499,14.140358 6.0575692,10.901399 5.9450424,10.620899 5.90564,10.522679 5.8734017,10.33549 5.8734017,10.204924 c 0,-0.8591973 0.8877636,-1.395785 1.6611631,-1.0040508 0.2349801,0.1190197 0.3307183,0.2271796 1.1097563,1.2537428 0.4689248,0.617918 0.8888785,1.15967 0.9332305,1.203895 0.092545,0.09228 -0.2472501,0.386751 2.9239824,-2.5339702 1.056801,-0.9733197 1.966438,-1.7997678 2.021416,-1.8365514 0.05498,-0.036784 0.214838,-0.090867 0.355246,-0.1201856 0.71777,-0.1498772 1.43783,0.4960998 1.356574,1.2170044 -0.04165,0.3694682 -0.193637,0.5937249 -0.710661,1.0485411 -0.266947,0.2348292 -1.625699,1.4351047 -3.019447,2.6672787 -1.393749,1.232173 -2.5980332,2.266579 -2.6761874,2.298678 -0.209381,0.086 -0.4462518,0.108025 -0.686809,0.06387 z"
         id="path16165"
         transform="matrix(1.3478148,0,0,1.3478148,-15.607368,-19.818663)" /><path
         style="opacity:1;fill:#212c3b;fill-opacity:1;stroke:#ab3232;stroke-width:1.602;stroke-linejoin:round;stroke-dasharray:none;stroke-opacity:0;paint-order:normal"
         d="M 9.1416656,14.463176 C 9.0244344,14.441658 8.8437936,14.364561 8.7402417,14.291847 8.5215278,14.138269 6.0585552,10.903587 5.9450843,10.620899 5.7962668,10.250153 5.8981551,9.7063439 6.17238,9.4077522 6.2293787,9.3456888 6.3825877,9.2446519 6.5128446,9.1832257 6.84829,9.0250373 7.1993852,9.0311016 7.5345648,9.2008732 c 0.2348239,0.1189406 0.3320346,0.2286403 1.118946,1.2627008 0.4739792,0.622844 0.8925625,1.163226 0.9301851,1.200849 0.079518,0.07952 -0.088905,0.226138 2.9446491,-2.5634635 2.302546,-2.1173802 2.261292,-2.0904594 2.908804,-1.8981692 0.319491,0.094879 0.622123,0.3876403 0.730991,0.7071488 0.172433,0.5060635 0.05887,0.8647883 -0.414928,1.3106386 C 14.884374,10.038172 9.9539721,14.34777 9.8284746,14.39931 9.6190872,14.4853 9.3822179,14.507331 9.1416656,14.46318 Z"
         id="path16167"
         transform="matrix(1.3478148,0,0,1.3478148,-15.607368,-19.818663)" /></g></g></svg>
