
<svg
   
   viewBox="0 0 1200 1200"
   version="1.1"
   id="svg5"
   xml:space="preserve"
   xmlns="http://www.w3.org/2000/svg"
   xmlns:svg="http://www.w3.org/2000/svg"><defs
     id="defs2" /><g
     id="layer1"><g
       id="g21"
       transform="matrix(0.10761418,0,0,0.10548124,66.216605,46.976774)"
       style="fill:#e6e6e6"><path
         d="M 478.5,0.6 C 476.3,0.8 469.3,1.5 463,2 317.7,15.1 181.6,93.5 95.4,214 47.4,281 16.7,357 5.1,437.5 1,465.6 0.5,473.9 0.5,512 0.5,550.1 1,558.4 5.1,586.5 32.9,778.6 169.6,940 355,999.8 c 33.2,10.7 68.2,18 108,22.4 15.5,1.7 82.5,1.7 98,0 68.7,-7.6 126.9,-24.6 184.3,-53.9 8.8,-4.5 10.5,-5.7 9.3,-6.7 -0.8,-0.6 -38.3,-50.9 -83.3,-111.7 L 589.5,739.4 487,587.7 C 430.6,504.3 384.2,436.1 383.8,436.1 c -0.4,-0.1 -0.8,67.3 -1,149.6 -0.3,144.1 -0.4,149.9 -2.2,153.3 -2.6,4.9 -4.6,6.9 -8.8,9.1 -3.2,1.6 -6,1.9 -21.1,1.9 h -17.3 l -4.6,-2.9 c -3,-1.9 -5.2,-4.4 -6.7,-7.3 l -2.1,-4.5 0.2,-200.5 0.3,-200.6 3.1,-3.9 c 1.6,-2.1 5,-4.8 7.4,-6.1 4.1,-2 5.7,-2.2 23,-2.2 20.4,0 23.8,0.8 29.1,6.6 1.5,1.6 57,85.2 123.4,185.9 66.4,100.7 157.2,238.2 201.8,305.7 l 81,122.7 4.1,-2.7 c 36.3,-23.6 74.7,-57.2 105.1,-92.2 64.7,-74.3 106.4,-164.9 120.4,-261.5 4.1,-28.1 4.6,-36.4 4.6,-74.5 0,-38.1 -0.5,-46.4 -4.6,-74.5 C 991.1,245.4 854.4,84 669,24.2 636.3,13.6 601.5,6.3 562.5,1.9 c -9.6,-1 -75.7,-2.1 -84,-1.3 z M 687.9,310 c 4.8,2.4 8.7,7 10.1,11.8 0.8,2.6 1,58.2 0.8,183.5 L 698.5,685.1 666.8,636.5 635,587.9 V 457.2 c 0,-84.5 0.4,-132 1,-134.3 1.6,-5.6 5.1,-10 9.9,-12.6 4.1,-2.1 5.6,-2.3 21.3,-2.3 14.8,0 17.4,0.2 20.7,2 z"
         id="path9"
         style="fill:#e6e6e6" /><path
         d="m 784.3,945.1 c -3.5,2.2 -4.6,3.7 -1.5,2 2.2,-1.3 5.8,-4 5.2,-4.1 -0.3,0 -2,1 -3.7,2.1 z m -6.9,4.5 c -1.8,1.4 -1.8,1.5 0.4,0.4 1.2,-0.6 2.2,-1.3 2.2,-1.5 0,-0.8 -0.5,-0.6 -2.6,1.1 z m -5,3 c -1.8,1.4 -1.8,1.5 0.4,0.4 1.2,-0.6 2.2,-1.3 2.2,-1.5 0,-0.8 -0.5,-0.6 -2.6,1.1 z m -5,3 c -1.8,1.4 -1.8,1.5 0.4,0.4 1.2,-0.6 2.2,-1.3 2.2,-1.5 0,-0.8 -0.5,-0.6 -2.6,1.1 z m -7.6,4 c -3.8,2 -3.6,2.8 0.2,0.9 1.7,-0.9 3,-1.8 3,-2 0,-0.7 -0.1,-0.6 -3.2,1.1 z"
         id="path11"
         style="fill:#e6e6e6" /></g><path
       style="fill:#f9f9f9;stroke-width:1.39791"
       d="m 435.44817,584.15211 c -36.66849,-5.55271 -64.13569,-15.36086 -89.80377,-32.06767 -46.41252,-30.20893 -76.67414,-72.73937 -89.95259,-126.42162 -2.91212,-11.77315 -3.28967,-16.61131 -3.32719,-42.63618 -0.057,-39.54452 3.83369,-57.4459 19.44462,-89.46607 27.52927,-56.46629 81.19936,-97.63418 145.20276,-111.37845 19.36739,-4.15901 61.02,-4.52157 79.89338,-0.69544 84.17683,17.06489 147.79353,78.77487 165.25471,160.30169 2.01389,9.40289 2.53607,18.00759 2.50258,41.23827 -0.0375,26.02487 -0.41507,30.86303 -3.32719,42.63618 -9.44593,38.18809 -26.94116,69.6957 -53.94469,97.15036 -12.95349,13.1699 -33.09514,29.29807 -35.52294,28.44455 -0.75438,-0.26521 -23.18579,-32.8787 -49.84759,-72.47443 C 428.98854,340.62083 407.94775,309.59497 405.87884,307.52606 c -1.4357,-1.43569 -5.0267,-2.08328 -11.55213,-2.08328 -15.35285,0 -14.09588,-7.68793 -14.09588,86.21419 0,92.88163 -1.06583,85.72843 12.77353,85.72843 13.99187,0 12.9869,4.63272 13.78671,-63.55353 l 0.69895,-59.58742 37.7435,54.81896 c 34.33559,49.86927 62.05258,88.00076 98.20072,135.099 l 13.16372,17.15132 -10.25023,4.6521 c -27.68464,12.56477 -50.84453,17.68534 -82.94141,18.33806 -13.07043,0.26581 -25.6516,0.19751 -27.95815,-0.15178 z m 99.95038,-205.7071 c 0,-84.15255 0.92598,-78.59386 -13.0922,-78.59386 -15.18674,0 -14.09761,-4.30289 -14.61828,57.75368 l -0.4513,53.78766 13.03247,19.68057 c 7.16785,10.82432 13.50425,19.69667 14.08088,19.71634 0.57664,0.0197 1.04843,-32.53531 1.04843,-72.34439 z"
       id="path319"
       transform="scale(0.26458333)" /></g></svg>
